<?xml version="1.0" standalone="no"?>
<!DOCTYPE svg PUBLIC "-//W3C//DTD SVG 20010904//EN"
 "http://www.w3.org/TR/2001/REC-SVG-20010904/DTD/svg10.dtd">
<svg version="1.0" xmlns="http://www.w3.org/2000/svg"
 width="512.000000pt" height="512.000000pt" viewBox="0 0 512.000000 512.000000"
 preserveAspectRatio="xMidYMid meet">
<metadata>
Created by potrace 1.11, written by Peter Selinger 2001-2013
</metadata>
<g transform="translate(0.000000,512.000000) scale(0.100000,-0.100000)"
fill="#000000" stroke="none">
<path d="M1775 4868 c-27 -11 -57 -24 -67 -28 -9 -5 -54 -23 -100 -41 -45 -17
-96 -37 -113 -44 -16 -8 -151 -62 -300 -120 -148 -59 -283 -113 -300 -120 -16
-7 -61 -25 -100 -40 -38 -15 -83 -33 -100 -40 -16 -7 -123 -50 -237 -95 l-207
-82 18 -46 c10 -26 22 -56 26 -67 5 -11 9 -22 9 -25 1 -3 11 -30 23 -60 12
-30 63 -163 113 -295 50 -132 96 -249 103 -260 9 -15 13 -334 17 -1400 l5
-1380 250 -68 c138 -37 273 -74 300 -81 28 -8 311 -85 630 -171 319 -86 589
-159 600 -164 12 -5 38 -1 70 11 99 37 461 170 525 193 152 56 268 98 750 274
168 62 328 120 355 131 28 10 91 33 140 51 50 18 94 36 99 41 6 5 10 390 10
1000 l1 992 25 2 c260 19 295 21 425 29 61 4 112 9 114 11 2 2 -14 27 -36 56
-23 29 -73 96 -112 148 -78 103 -83 110 -121 156 -14 17 -32 41 -40 54 -8 12
-20 28 -25 34 -6 6 -61 77 -122 158 l-112 147 154 273 c85 150 153 274 151
276 -2 1 -33 -4 -70 -12 -36 -9 -78 -18 -94 -21 -15 -2 -101 -21 -192 -41 -91
-19 -176 -38 -190 -40 -14 -3 -115 -25 -225 -49 -110 -24 -215 -47 -234 -50
-19 -3 -37 -8 -40 -10 -4 -2 -26 -6 -50 -10 -24 -3 -55 -11 -70 -16 -14 -6
-27 -10 -29 -9 -1 1 -26 -4 -55 -9 -66 -14 -95 -20 -131 -27 -16 -2 -32 -6
-35 -8 -3 -2 -22 -7 -42 -10 -19 -3 -73 -14 -120 -25 -46 -11 -97 -22 -114
-24 -128 -23 -190 -43 -224 -74 -35 -32 -37 -32 -111 -27 -41 2 -103 6 -138 8
-34 2 -64 5 -66 7 -4 4 -89 181 -171 354 -23 50 -92 191 -152 315 -60 124
-127 262 -148 308 -25 52 -45 82 -55 81 -8 0 -37 -10 -65 -21z"/>
</g>
</svg>
